<svg
  width="100%"
  height="200"
  viewBox="0 0 200 200"
  xmlns="http://www.w3.org/2000/svg"
>
<path stroke-width="2" vector-effect="non-scaling-stroke"  id="glasses" d="m22.83335,68.33335c0,0 0,0 0.33333,0c0.33333,0 1.33897,-0.30112 3.33333,-0.66666c3.34365,-0.61284 8.65886,-1.16659 14,-1.33334c4.99757,-0.15602 11.72121,0.04822 17.66667,1.33334c5.05792,1.09327 9.96889,3.07958 15,5c3.64505,1.39134 6.66666,2.66666 8.66666,3.66666c1.33334,0.66667 1.89782,1.48627 2.33334,1.66667c0.30796,0.12756 0.35117,0.18016 1,0.33333c0.72543,0.17125 1.12896,0.97254 2,1.33334c0.30796,0.12756 0.66667,0.33334 0.66667,0.33334c0,0 0.33333,0 0.66666,-0.33334c0.66666,-0.66666 2.56736,-1.85786 5,-3c2.578,-1.21039 5.57634,-2.6144 9.33334,-3.66666c3.27338,-0.91681 7.29357,-1.82595 11,-2.66667c3.63445,-0.82439 7.6427,-1.16453 11.66667,-1.66666c3.98297,-0.49702 7.97783,-0.83151 12.33333,-1.33334c4.31758,-0.49746 7.67462,-0.52578 10,-0.33333c2.02068,0.16724 3.33334,0.66666 3.66667,1c0.33333,0.33333 0.43097,0.43096 0.66667,0.66666c0.2357,0.23569 1.2706,1.06519 3,2.66666c2.25485,2.08807 4.54413,4.49246 6.66666,6c1.58463,1.1255 3,2.00001 4,2.66667c1,0.66666 1.33334,0.66666 1.66667,1c0,0 0,0.33334 0.33333,0.33334c0,0 0,0.33333 0,0.33333c0,0 0.10219,0.15294 -0.33333,0.33334c-0.30795,0.12756 -0.39104,0.28424 -0.66667,0.66666c-0.43582,0.60466 -0.8196,0.8978 -1,1.33334c-0.12756,0.30796 0,0.33334 0,0.33334c0,0 -0.33333,0.33333 -0.33333,0.33333c0,0.33334 -0.33333,0.33334 -0.33333,0.33334c-0.33334,0 -1,-0.33333 -1.33334,-0.66666c-0.33333,-0.33333 -0.66666,-0.33334 -1,-0.33334c-0.33333,0 -1,0 -1.66666,0c-0.66667,0 -1.46025,0.17407 -2.33334,1c-1.21075,1.14536 -2.13718,2.80134 -3.33333,4.33334c-1.16043,1.48625 -1.908,2.40757 -3,3.66666c-1.23546,1.4245 -2.76454,2.90884 -4,4.33334c-1.092,1.25909 -2.48814,2.15482 -3.66667,3.33334c-1.17851,1.1785 -2.29617,2.0647 -4,3c-1.30676,0.71734 -2.62534,1.44772 -4.33333,2c-1.30771,0.42285 -2.69283,0.92995 -3.66667,1.33333c-0.68863,0.28523 -1.96927,0.83208 -3.33333,1c-1.32335,0.16291 -2.63593,0.49875 -4,0.66667c-0.99251,0.12218 -2.00001,0.33333 -3.00001,0.33333c-1.66666,0 -3.33333,0 -4.66666,0c-1.33334,0 -2,0 -2.33334,0c-0.66666,0 -1.66666,-0.33333 -2.33333,-0.66666c-0.66667,-0.33334 -1.198,-0.83767 -2,-1.33334c-0.89666,-0.55417 -2.4073,-1.22855 -4.33334,-2.66666c-2.08605,-1.55761 -4.07724,-2.92619 -5.66667,-4.66667c-1.75558,-1.92242 -3.33333,-4.33333 -5,-7c-1.66666,-2.66666 -3.183,-4.86881 -4.33333,-6.66666c-0.80343,-1.25568 -1.25675,-2.34225 -1.33334,-2.66666c-0.17125,-0.72543 -0.39103,-0.95091 -0.66666,-1.33334c-0.43581,-0.60467 -1,-1.33334 -1.33334,-2c-0.33334,-0.66666 -0.66666,-1 -0.66666,-1.33334c0,0 0,-0.33334 -0.33334,-0.33334c0,0 0,0 -0.33334,0c-0.66666,0 -1.33333,0.33334 -2,0.33334c-0.66666,0 -0.89781,0.15294 -1.33333,0.33334c-0.30796,0.12756 -1,0.33334 -1.66667,1c-0.66666,0.66666 -1.47295,1.47295 -2,2c-0.52705,0.52705 -0.7156,1.28775 -1.33334,2c-1.09201,1.25909 -2,2.66666 -2.66666,3.66666c-0.66666,1 -1.33334,1.66667 -1.66666,2.33334c-0.33334,0.66666 -0.95922,1.35534 -1.33334,2c-0.60324,1.03949 -1.51379,1.90089 -2,3c-0.55601,1.25688 -1.06342,2.29385 -1.66666,3.33334c-0.37411,0.64466 -1,1.33333 -2,2.33334c-1,1 -2.33334,2.33333 -3,3c-1,1.00001 -1.62718,2.06342 -2.66667,2.66666c-0.64466,0.37411 -1.33333,1 -2,1.33334c-0.66666,0.33333 -1.05075,0.41154 -1.66666,0.66666c-0.43552,0.1804 -1,0.66666 -1.66667,0.66666c-0.66667,0 -1,0 -1.66667,0c-0.33333,0 -1.07056,-0.23804 -2,-1c-0.72911,-0.59773 -2,-1 -3,-1.66666c-1,-0.66666 -2.062,-1.23085 -2.66667,-1.66666c-0.38242,-0.27563 -0.95091,-1.0577 -1.33333,-1.33334c-0.60466,-0.43582 -1.11539,-0.56848 -1.66667,-1.33334c-0.43581,-0.60466 -1.35731,-1.65108 -2,-2.66666c-1.03937,-1.64241 -2,-3.66667 -3,-6.33334c-1,-2.66666 -1.61613,-6.01504 -2.33333,-8.33334c-0.62306,-2.01401 -1.13863,-3.58702 -1.66667,-4.66666c-0.46312,-0.94691 -1.06894,-1.60423 -1.66667,-2.33334c-0.76196,-0.92944 -1.33333,-1.66666 -2,-2.33334c-0.66666,-0.66666 -0.84972,-1.65172 -2,-2c-0.31903,-0.0966 -1,-0.33333 -1.33333,-0.33333c-0.33333,0 -1.02537,0.12756 -1.33333,0c-0.43552,-0.1804 -0.66667,-0.33334 -1,-0.66667c-0.33333,-0.33333 -0.66667,-0.33333 -0.66667,-0.33333c0,0 -0.33333,-0.33334 -0.66667,-0.33334c-0.33333,0 -0.69204,-0.20578 -1,-0.33334c-0.43552,-0.1804 -0.33333,-0.66666 -0.66667,-1.33333l-0.33333,-1.66667l-0.33333,-1.66666" stroke="#000" fill="none"/>
  <path stroke-width="2" vector-effect="non-scaling-stroke"  id="nose" d="m81.16669,80.00002c0,0 0.25733,0.75903 -0.33334,2c-0.71629,1.5049 -1.25381,2.38062 -2.66666,4.66666c-1.89555,3.06706 -3.92912,6.20193 -5.66666,10c-1.18481,2.58986 -2.00001,5.00001 -2.66667,7.33334c-0.66667,2.33334 -1.22976,5.68 -1.66666,8.66667c-0.53944,3.68753 -1.21598,7.01152 -1.66666,11c-0.5293,4.68423 -1.99865,9.6216 -2.33334,13.33334c-0.23948,2.6559 -0.33334,4.66667 -0.33334,6c0,0.66667 -0.2357,1.09763 0,1.33333c0.2357,0.2357 1,0.33334 1.33334,0.33334c0.33334,0 0.66666,0.33333 1.33334,0.33333c0.66666,0 1.27458,0.16208 2,0.33333c0.64883,0.15317 1,0 1.33333,0c0.33334,0 0.72868,-0.23083 1.33334,-0.66666c0.76485,-0.55127 1.062,-0.89752 1.66666,-1.33334c0.76484,-0.55127 1.73723,-1.57137 2.66667,-2.33333c1.09367,-0.89659 2.20368,-1.64268 3,-2.33333c0.56308,-0.48836 1,-1.33334 1.66666,-2c1,-1 1.87128,-1.76566 2.66667,-2.66667c0.49328,-0.55878 0.59008,-1.00891 0.66666,-1.33333c0.17125,-0.72542 0.59661,-1.35948 1,-2.33334c0.57047,-1.37723 1.16449,-2.29285 1.33334,-3.33333c0.21358,-1.31612 0.33333,-2.66667 0.33333,-4c0,-1.66667 0,-3.00001 0,-4.33334c0,-1.33334 0,-2.66667 0,-4.33334c0,-2 0,-3.66666 0,-5.33334c0,-2.33333 -0.33333,-4.33333 -0.66666,-6.66666c-0.33334,-2.33334 -0.46959,-4.34307 -0.66666,-6.33334c-0.16748,-1.6914 -0.49783,-2.62618 -0.66667,-3.66666c-0.10679,-0.65807 0,-1.66667 0,-2.66667c0,-0.66666 -0.16209,-1.60792 -0.33333,-2.33333c-0.15317,-0.64883 0,-1.33334 0,-2c0,-0.66667 -0.16209,-0.94125 -0.33334,-1.66667c-0.15317,-0.64883 0,-1.33333 0,-1.66666c0,-0.66666 0,-1 0,-1c0,0 0,-0.33334 0,-0.33334c0,-0.33333 0,-0.66666 0,-1c0,-0.33333 0,-0.66666 0,-1.33334l0,-1.33333" stroke="#000" fill="none"/>
  <path stroke-width="2" vector-effect="non-scaling-stroke" id="eye1" d="m51.50002,82.00002c0,0 0,0 0,-1.33334c0,-3 0,-7 0,-11.33334c0,-3.66666 0,-6 0,-7.66666c0,-1 0,-1.33334 0,-1.66667c0,0 0.15317,-0.01783 0,-0.66667c-0.17125,-0.72541 -0.30623,-2.33736 -0.66667,-4.66666c-0.31006,-2.00374 -0.49782,-3.29285 -0.66667,-4.33334c-0.05339,-0.32903 -0.33333,-0.33333 -0.33333,0c0,0.33333 -0.21458,2.33962 0,6c0.33391,5.69597 1.72913,12.32267 2.66667,18c0.71434,4.32573 1.49918,6.97527 1.66666,8.66667c0.06569,0.66342 0.33334,1.33334 0.33334,1.33334c0.33333,0 0.33333,0 0.33333,-0.33334c0,-1.66666 -1.19199,-4.26911 -2.33333,-8c-1.20615,-3.94274 -2.16585,-6.97527 -2.33334,-8.66667c-0.09854,-0.99513 -0.33333,-1.33333 -0.33333,-1.33333c0.33333,1 1,3 1.66667,5.66666c0.66666,2.66666 1.4589,5.29578 2,7.33334c0.43625,1.64273 0.36596,3.27481 1,3.66666c0.28355,0.17524 0.48301,-0.00674 0.33333,-1.66666c-0.33469,-3.71172 -2.06569,-8.31326 -3.66667,-13.66667c-1.39059,-4.64992 -2.17791,-7.69887 -2.66666,-9.66666c-0.25409,-1.02301 0.07383,-1.06021 0.33333,-0.66667c0.98816,1.49859 2.27193,4.23059 3.66667,8.33333c1.66555,4.89936 2.41384,9.31657 3,12.33334c0.38673,1.99036 0.66667,3 1,3.33334c0,0 0,-1 0,-4.33334c0,-4.66666 3.67707,-18.50014 -0.33333,-18.33334c-1.33218,0.05541 0.40585,3.98099 1.33333,7.66667c1.08528,4.31276 2,8.66666 2.66667,12c0.33333,1.66666 0.66666,2.66666 1,3c0,0 -0.47985,-1.41428 -2,-4.66667c-2.08393,-4.45863 -4.76516,-9.2956 -6,-12.66666c-0.72512,-1.97955 -1.33333,-3.33334 -1.33333,-4c0,0 0.0962,0.62276 0.66667,2c1.21015,2.92156 2.50534,5.93624 3.66667,9.33334c0.78498,2.29623 1.16209,3.94125 1.33333,4.66666c0.07658,0.32442 0.03089,0.65856 -0.33333,-0.66666c-0.92228,-3.35567 -2.67277,-7.53062 -4,-11.33334c-0.90578,-2.59521 -1.49542,-4.27459 -1.66666,-5c-0.07658,-0.32442 0.09422,-0.05676 0.66666,1c1.20914,2.23213 2.85937,4.92157 4,8c1.20913,3.2633 1.66666,5.66666 2.33333,7.33334l0,1.33333l0.33333,0.33334l0,0" stroke="#000" fill="none"/>
  <path stroke-width="2" vector-effect="non-scaling-stroke" id="eye2" d="m117.16669,78.00002c0,0 0.10679,-0.34194 0,-1c-0.3377,-2.08096 -1.83028,-4.63808 -2.33334,-8c-0.49575,-3.31308 -0.46302,-5.67916 -0.66666,-7.33334c-0.16792,-1.36407 -0.33334,-2.33334 -0.33334,-3c0,-0.66667 -0.09763,-0.90237 -0.33334,-0.66667c-0.2357,0.2357 -0.05606,1.67837 0.66667,5c1.23768,5.68833 2.46214,11.38567 3.66666,15.66667c0.8565,3.04408 0.94125,5.50458 1.66666,5.33334c0.32442,-0.07658 -0.73277,-1.28803 -3,-4.66666c-3.09132,-4.60668 -5.93242,-9.69815 -7.66666,-13.33334c-1.28375,-2.69089 -2.15294,-4.23115 -2.33334,-4.66667c-0.12756,-0.30796 0.25178,0.37734 1,1.66667c1.80972,3.11848 4.2207,6.92145 5.66667,11.33333c1.18368,3.61156 1.49874,5.96927 1.66666,7.33334c0.04073,0.33084 0.18162,0.28646 -0.33334,-1.33333c-0.99464,-3.12865 -2.90439,-6.59764 -3.66666,-9.66667c-0.48875,-1.9678 -0.66666,-3 -0.66666,-3.33334c0,0 0.91045,1.17716 2.33333,3.66667c1.62906,2.85026 2.73192,5.29723 4,7.66666c0.70341,1.31432 1.09763,2.09763 1.33334,2.33334c0.2357,0.2357 0.47607,-3.0017 0.33334,-9c-0.16672,-7.00595 -0.83313,-12.32087 -1,-15.66667c-0.09962,-1.99752 0,-2.66666 0,-2.33333c0,1.33333 0.66666,4.33333 2,8.33334c1.33333,4 2.66341,7.26342 3,9.66667c0.1387,0.99033 0.33333,1.33333 0.33333,1.33333c-0.33333,-1.33333 -1.45966,-4.75207 -3.33333,-9c-1.50401,-3.40982 -2.4617,-5.79067 -3.33334,-7c-0.27563,-0.38242 -0.66666,-0.33333 -0.66666,-0.33333c0,1.33333 0.17561,4.36554 1,8c0.84072,3.70643 1.8616,6.72274 3,9.33333c0.59586,1.36645 1,2 1,2.33334l0.33333,0.33334l0,0" stroke="#000" fill="none"/>
  <path stroke-width="2" vector-effect="non-scaling-stroke" id="headoutline" d="m45.83335,81.50002c0,0 0,0 0,0.66666c0,2 0,5.66667 0,12.00001c0,9 0,18.66666 0,29.66666c0,10.66667 0,20 0,27.66667c0,6.33333 0,12.33334 0,17.66667c0,4.66667 0,8 0,10c0,1.33333 0,2 0,2c0,0.33333 0.27089,0.40227 1,1c0.92944,0.76196 2.33333,1.33333 3.33333,2c1,0.66667 2.64599,0.83276 4.66667,1c2.98978,0.24744 6.68562,-0.14224 11,-0.66667c4.02554,-0.48932 7.67224,-0.95319 10.66667,-1.33333c2.33825,-0.29684 4.66666,-0.99998 6.33334,-1.33333c1.66666,-0.33333 2.66666,-0.66667 3.33333,-0.66667c0.33334,0 0.33334,0 0.66667,-0.33333c0,0 0.33333,0 1.33333,0c2.33334,0 6,0 8.66667,0c3.33333,0 7.68451,0.36131 11.33334,0c3.3828,-0.33496 5.69704,-1.26523 8,-2.33334c2.02851,-0.94083 4.46992,-2.11858 6.66666,-3.66666c2.51207,-1.77029 5.17825,-4.18391 7.66667,-7.33334c2.52249,-3.19257 5.78198,-7.82007 8,-14c2.10359,-5.86111 2.88969,-12.02187 4,-17.33333c0.90999,-4.35313 1.59798,-7.36249 2.33333,-9.00001c0.61067,-1.35989 0.7643,-2.09763 1,-2.33334c0.2357,-0.23571 0.33334,0 0.33334,0c0,-0.33333 0,-0.33333 0,-0.33333c0,0 0,0 0.33333,0.33333c0.33333,0.33334 0.39532,0.56419 1,1c0.76486,0.55127 1.33333,1.66667 2.66667,2.33334c2,1 4.27728,2.14969 7.66666,3.33333c3.28552,1.14737 5.69887,1.51125 7.66667,2c1.02301,0.25409 1.66667,0.33333 1.66667,0.33333c0.33333,0 0.52991,-0.41098 1.33333,-1.66666c1.15033,-1.79787 2.66667,-3.66667 4,-6.00001c1.33333,-2.33334 2.52271,-4.5827 3.33333,-6.66666c0.87975,-2.26163 1.51291,-5.299 2,-8.33334c0.53096,-3.30762 0.83278,-5.97932 1.00002,-8c0.19246,-2.32539 0.60869,-4.3896 0,-6.66667c-0.92712,-3.46833 -3.67723,-8.32842 -6.00002,-13.33334c-2.00914,-4.3291 -3.8181,-8.81744 -6.33333,-11.66666c-2.18384,-2.47382 -4.62866,-4.41225 -7.33333,-5.66667c-2.30296,-1.06812 -4.02614,-1.26328 -5,-1.66666c-0.68863,-0.28524 -1.71976,-0.46312 -2.66667,0c-1.07964,0.52803 -2.18288,1.92331 -2.66667,3.33334c-0.55161,1.60767 -0.66666,4.33334 -0.66666,7.33334c0,2.66666 0,4.66666 0,6.33333c0,0.66667 0,1 0,1.33334c0,0 0,0.33334 0,0.33334c0,0.33333 0,0.33333 0,0.33333c0.33333,0.33334 0.33333,0.33334 0.33333,0.33334c0,0.33334 0,0.33334 0,0.66666c0,0 0,0 0,0c0,0.33334 0,1 0,2c0,1 0,2.33334 0,3.00001c0,0.66666 0,0.66666 0,1l0,0l0,-0.33334" stroke="#000" fill="none"/>
  <path stroke-width="2" vector-effect="non-scaling-stroke" id="mouth" d="m124.83336,139.83336c0,0.33334 -0.50614,2.09222 -2.66666,5.66667c-2.48679,4.11424 -5.77757,8.5761 -8.66667,11c-3.1171,2.61519 -7.67445,4.26303 -11,4.66667c-2.33985,0.284 -4,0.33333 -5,0.33333c0,0 0,0 0,0c0.33334,0 0.33334,0 0.33334,0l0,0l0.33333,0" stroke="#000" fill="none"/>
  <path stroke-width="2" vector-effect="non-scaling-stroke" id="bangs" d="m46.50002,24.83335c0,0 0,0.66667 0,2c0,3 0,7.66667 0,11.33333c0,4.33334 0,8.33334 0,12c0,3.66667 0.2872,7.01289 1.33333,10.66667c0.95791,3.34567 1.74044,5.77285 2.66667,7.66667c0.52803,1.07964 1,2 1.66666,3c0.66667,1 1.23085,2.062 1.66667,2.66666c0.27563,0.38242 0.66667,0.66667 0.66667,0.66667c0.33333,0 0.33333,0 1,0c0.33333,0 1,0 1,0c0.33333,0 0.33333,0 0.66667,0c0,0 0,-0.33334 0,-1.33334c0,-2 0,-5 0,-8.66667c0,-4 0.24065,-8.02431 1.33333,-12c0.92228,-3.35567 1.83252,-5.64193 2,-7.33334c0.19707,-1.99026 0.33333,-3.33333 0.33333,-4.33333c0,-0.66667 0,-1 0,-1c0,0.66667 0.17791,1.69887 0.66667,3.66667c0.50818,2.04602 1.43196,4.95248 3,8.33334c2.13622,4.60591 4.10043,9.48558 7,13.66666c2.16584,3.12308 3.66666,4.66666 5,5.33334c0.66666,0.33334 1.15293,0.43552 1.33333,0c0.12756,-0.30795 0,-0.66666 0,-1.33333c0,-1 -0.5532,-3.34543 -1,-7c-0.53206,-4.35191 -1.33236,-8.96178 -1.66666,-13.33334c-0.27959,-3.65599 -0.49918,-5.97527 -0.66666,-7.66667c-0.09853,-0.99513 -0.11895,-1.32264 0,-0.66666c0.50816,2.8023 3.06608,6.63217 6,12.33333c3.41061,6.62746 6.31252,12.67862 9,17.33334c2.31545,4.01038 4.40962,6.2432 6,7.66666c0.70251,0.62878 1.52399,0.90689 2,0.33334c1.54978,-1.86737 1.49994,-7.32676 1.66666,-13.66667c0.16649,-6.33114 -0.35528,-11.66016 -1.33333,-15c-0.68201,-2.3289 -1.39676,-3.96051 -2,-5c-0.37411,-0.64467 -0.33334,-1.66667 -0.66667,-1.66667c-0.33333,0 1.03982,1.29979 3,3.66667c2.72276,3.28768 5.12253,7.79362 8.00001,12.33333c2.17831,3.43665 3.54433,5.73267 4.66666,7.66667c0.60324,1.03949 0.89781,1.48627 1.33334,1.66667c0.30795,0.12756 0.33333,0 0.33333,-0.66667c0,-2.33334 0,-10 -0.66666,-22.33334c-0.66666,-12.33333 -1.61074,-22.40346 -3,-29c-0.78324,-3.719 -1.6993,-6.27481 -2.33334,-6.66667c-0.28355,-0.17524 -0.01614,1.00611 1,3.66667c2.29693,6.01403 5.06508,14.32276 6.33334,22.33333c1.05416,6.65832 1.47238,13.0279 2.33334,18.33334c0.81677,5.03318 2.72247,9.30048 4.66666,12.66667c1.71642,2.97182 2.78925,4.85464 4,6c0.87309,0.82594 1.27458,1.16209 2,1.33334c0.64883,0.15317 1.66667,0 2.66667,0c1,0 1.87123,-0.61769 2.33333,-3c1.21266,-6.25181 1.49998,-15.99653 1.66667,-28c0.13423,-9.66574 0,-15.66667 0,-19.33334c0,-2 0,-2.66667 0,-3c0,0 0,0.33333 0,1c0,0.66667 0.30243,1.67477 0.66666,3c0.92227,3.35567 2.16103,7.96647 3.33334,14c1.16019,5.9711 1.78168,10.98387 2.33333,15.33334c0.42151,3.32334 0.72385,6.03929 1.33334,9.33334c0.69148,3.73715 1.63002,7.67019 2,11.33333c0.30333,3.00318 0.66666,5.33334 0.66666,7c0,1.66667 0,3 0,4c0,1 0,1.66667 0,2c0,0.33334 -0.2357,0.43097 0,0.66667c0.2357,0.23571 0.33334,0 0.33334,0c0,0 0,0 0.33333,0c0,0 0,0 0.33333,0c0.66667,0 1.23116,0.15294 1.66667,0.33334c0.30795,0.12756 0.66667,0 1,0l0.33333,0l0,0.33333" stroke="#000" fill="none"/>
  <path stroke-width="2" vector-effect="non-scaling-stroke" id="hairleft" d="m36.16668,22.50002c-0.33333,0.33333 -0.66667,0.66667 -1.33333,1.66667c-0.66667,1 -1.61599,1.82971 -3.33334,5c-4.83657,8.92854 -5.49594,16.63688 -6.33333,21.66667c-0.8284,4.97577 -0.84553,9.33609 -1,13.66667c-0.16677,4.67558 -0.27331,9.6603 0.33333,15.66666c0.73996,7.3263 1.48375,15.01167 2,21.66667c0.49253,6.34925 0.66667,13 0.66667,19c0,6.66667 -0.98233,12.67049 -2,17.33334c-0.6553,3.0025 -1.65751,5.21582 -2,6.66666c-0.15317,0.64883 -0.33333,1 -0.33333,1.66667c0,0 -0.33333,0.33333 -0.33333,0.33333c-0.33333,0.66667 -0.56447,1.15294 -1,1.33334c-0.30796,0.12756 -0.66667,0.33333 -0.66667,0.33333c-0.33333,0 -0.66667,0 -0.66667,0c-0.33333,0 -0.33333,0 -0.66667,0c0,0 -0.33333,0 -0.33333,0c0,0.33333 0.11976,1.02026 -0.33333,3.33333c-0.5284,2.69748 -1.45359,5.0717 -2.33333,7.33334c-1.08083,2.77861 -2.41106,5.31099 -3.33333,8.66667c-0.72845,2.65045 -1.33333,4.66666 -2,6c-0.33333,0.66666 -0.66667,1 -0.66667,1c0,0 0,0 0,0c0.33333,0 1,0 1.66667,0c1,0 2.40504,0.21307 4.66667,-0.66667c4.16792,-1.62126 7.97386,-5.03812 12.33333,-8c4.97058,-3.37706 8.84024,-6.20308 11.33333,-8c1.57677,-1.13647 2.33334,-1.66667 2.66667,-1.66667c0.33333,0 0.17125,0.27458 0,1c-0.07658,0.32442 0.03955,1.34174 -0.33333,3c-0.60304,2.68178 -1.20952,5.71082 -2.33334,8.66667c-0.90216,2.37288 -1.97253,3.79562 -2.33333,4.66667c-0.12756,0.30795 0.02537,0.46089 0.33333,0.33333c0.43552,-0.18039 1,-0.66667 1.66667,-1c0.66667,-0.33333 1.33333,-0.66667 2,-1c0.66667,-0.33333 1.23115,-0.81961 1.66667,-1c0.30796,-0.12756 0.66666,-0.33333 1,-0.66667c0.33333,-0.33333 0.66667,-0.33333 0.66667,-0.33333l0,0l-0.33334,0l-0.33333,0" stroke="#000" fill="none"/>
  <path stroke-width="2" vector-effect="non-scaling-stroke" id="hairrest" d="m137.50003,153.83336c0,0.33334 -0.27762,1.34622 0,4.33334c1.0043,10.80598 4.41844,22.76466 21.33333,36.33333c3.39017,2.7195 6.30923,3.74393 8.33334,4.33334c1.31955,0.38426 1.66666,0.66666 2,0.66666c0.33333,0 0.33333,0 0.33333,0c0,-0.33333 0,-0.33333 0,-0.33333c0,0 0.05093,-0.34711 -0.33333,-1.66667c-0.58942,-2.02411 -1.34836,-4.99854 -1.66667,-8.33333c-0.34984,-3.66513 -0.33333,-6.66667 -0.33333,-8.33333c0,-1 0,-1.66667 0,-1.66667c0,0 0.36848,0.29053 2,1.66667c3.06818,2.58792 6.48181,5.14932 9,7.33333c2.13675,1.8532 3.72867,2.89752 4.33333,3.33333c0.38243,0.27565 0.5977,0.40883 0.66667,-0.33333c0.22455,-2.41629 -2.59676,-7.36887 -5.33334,-12.66667c-2.60066,-5.03464 -5.12685,-8.25435 -6.33333,-10.33333c-0.74823,-1.28932 -1.09763,-1.7643 -1.33333,-2c-0.2357,-0.2357 0.0043,-0.38672 0.33333,-0.33333c1.04048,0.16884 1.96925,0.83208 3.33333,1c1.32335,0.16292 2.67024,0.12904 5.00002,0c3.01384,-0.16693 6,-0.33334 8,-0.33334c1.33333,0 2,0 2,0c0,-0.33333 -1.07848,-0.91193 -3.33334,-3c-4.15056,-3.84354 -7.94568,-8.37201 -10.33333,-11.66667c-1.95602,-2.69908 -2.90472,-4.7372 -3.66667,-5.66666c-0.29886,-0.36456 -0.03824,-0.29012 0.33333,0c1.53198,1.19617 3.7204,2.24879 5.33334,3.33333c1.38307,0.92998 2.23114,1.48627 2.66667,1.66667c0.61591,0.25511 1.62617,0.16449 2.66666,0.33333c0.98709,0.16019 1.66667,0 2,0c0.33334,0 0.33334,0 0.66667,0c0,0 0,-0.33333 0,-0.33333c0,-0.33334 0,-0.33334 0,-0.33334c0,-0.33333 -0.33333,-0.66666 -0.33333,-1.66666c0,-2 0.15602,-5.33578 0,-10.33334c-0.16675,-5.34113 -0.33334,-10.33333 -0.33334,-14.66666c0,-4.33334 0.49986,-8.65627 0.66667,-12.66666c0.16623,-3.99655 0,-8.33334 0,-12.33334c0,-3.33334 0.18265,-7.00455 0,-10.66667c-0.16687,-3.3458 -1.02051,-6.99731 -1.66667,-12c-0.68852,-5.33056 -1.09854,-10.37029 -2,-15.33334c-0.79477,-4.37563 -1.93221,-8.03106 -3.33333,-11c-1.27243,-2.69626 -2.72275,-5.28642 -4.66667,-7.66667c-2.40404,-2.94364 -4.64839,-6.01471 -7.33333,-9.33334c-2.9798,-3.6831 -6.15654,-7.54228 -9.66667,-10.33333c-3.18477,-2.53234 -6.29503,-4.42309 -9.33333,-5.66667c-2.63577,-1.07882 -4.98195,-2.04953 -7.66667,-3c-1.98732,-0.70357 -4,-1.33333 -5.66667,-2c-1.66667,-0.66667 -3.3026,-1.49874 -4.66667,-1.66667c-1.32334,-0.16291 -2.99999,0 -4.33333,0c-1.66666,0 -2.95952,0.16449 -4,0.33333c-0.98709,0.16018 -2.33334,0 -3.66666,0c-1.33334,0 -3.3296,0.35661 -5.33334,0.66667c-2.3293,0.36044 -4.33334,0.33333 -6.33334,0.33333c-1.66666,0 -3.33334,0 -5,0c-2,0 -3.98224,0.16625 -6.33334,0.33333c-2.65996,0.18904 -5.66666,0.33333 -9,1c-3.33334,0.66667 -6.27186,1.33082 -9,1.66667c-2.31586,0.28509 -4.64599,0.49943 -6.66666,0.66667c-1.99319,0.16496 -4.01489,0.25379 -6,0.66667c-2.69115,0.55972 -5.00403,0.9729 -7.33333,1.33333c-2.00374,0.31006 -3.66667,0.66667 -5,1c-1.33333,0.33333 -2.70957,0.37688 -3.66666,0.66667c-1.15028,0.34828 -1.9561,1.0962 -3.33334,1.66667c-0.97385,0.40338 -1.77,0.44583 -2.66667,1c-0.401,0.24783 -1.02538,0.20577 -1.33333,0.33333c-0.43552,0.1804 -0.94125,0.49542 -1.66667,0.66667c-0.64883,0.15317 -1.33333,0.33333 -1.66666,0.33333l-0.33334,0.33333l-0.33333,0l0,0" stroke="#000" fill="none"/>
</svg>