<svg
  width="100%"
  height="200"
  viewBox="0 0 60 60"
  xmlns="http://www.w3.org/2000/svg"
>
<path id="glasses" d="m7.91915,21.81499c0,0 0.35442,0.03659 0.94209,0c0.94759,-0.05899 1.99567,-0.29425 2.82627,-0.35328c1.05719,-0.07513 2.70915,-0.04574 4.35717,0c2.12215,0.0589 4.17789,0.35207 5.7703,1.17761c1.59585,0.82732 2.68567,1.68202 3.53284,2.23746c0.57424,0.3765 0.94209,0.58881 1.05985,0.70657c0,0 0,0 0,0c0,0 0,0 -0.11776,0c0,0 0.08327,-0.03449 0,-0.11776c-0.08327,-0.08327 -0.11776,0 0,0c0,0 0.11776,0 0.11776,0c0.23552,0 0.70353,-0.01638 1.29537,-0.11776c0.82075,-0.14059 1.744,-0.53785 2.70851,-0.82433c1.04077,-0.30913 2.11819,-0.48564 3.17955,-0.58881c1.41138,-0.13719 2.94128,-0.29437 4.82822,-0.35328c1.76556,-0.05512 3.53284,0 4.94598,0c1.17761,0 2.13589,-0.09226 3.06179,0.11776c0.72634,0.16475 1.29538,0.58881 1.76642,1.05985c0.35328,0.35328 0.61121,0.69262 0.82433,1.05985c0.13217,0.22775 0.19045,0.36225 0.23552,0.47105c0.06373,0.15386 0.11776,0.23552 0.11776,0.23552c0,-0.11776 0,-0.11776 0,-0.11776c0,0.11776 -0.03449,0.15225 -0.11776,0.23552c-0.08327,0.08327 0,0.11776 0,0.23552c0,0 -0.0907,0.12091 -0.11776,0.23552c-0.0605,0.25628 -0.17817,0.42323 -0.35328,0.70657c-0.19578,0.31678 -0.27527,0.62531 -0.47105,0.94209c-0.17511,0.28333 -0.31708,0.49295 -0.47105,0.70657c-0.09738,0.1351 -0.27002,0.15225 -0.35328,0.23552c-0.08327,0.08327 -0.11776,0.23552 -0.23552,0.35328c-0.11776,0.11776 -0.08166,0.28955 -0.23552,0.35328c-0.1088,0.04506 -0.23552,0.11776 -0.35328,0.23552c0,0 -0.11776,0.11776 -0.11776,0.11776c-0.11776,0 -0.15226,0.03449 -0.23552,0.11776c-0.08327,0.08327 -0.25743,0.19932 -0.47105,0.35328c-0.27021,0.19475 -0.59786,0.43942 -1.05985,0.58881c-0.6034,0.19511 -1.18835,0.56474 -2.00194,0.94209c-0.95552,0.44317 -1.82755,0.9414 -2.70851,1.29538c-0.90107,0.36205 -1.76841,0.45967 -2.47299,0.58881c-0.59063,0.10825 -1.16675,0.29396 -1.64866,0.35329c-0.46752,0.05756 -0.93942,-0.01124 -1.41314,-0.11776c-0.58584,-0.13174 -1.19609,-0.30379 -1.88418,-0.58881c-0.72983,-0.30231 -1.32996,-0.52678 -2.00194,-0.94209c-0.50087,-0.30956 -1.0868,-0.67473 -1.64866,-1.17762c-0.49637,-0.44427 -0.88548,-1.00782 -1.17761,-1.41314c-0.30793,-0.42724 -0.47104,-0.94209 -0.70657,-1.29537c-0.23552,-0.35328 -0.35328,-0.70657 -0.47105,-1.05985c-0.11776,-0.35328 -0.23552,-0.70657 -0.23552,-1.05985c0,-0.11776 0,-0.23552 0,-0.35328c0,0 0,-0.11776 0,-0.11776c0,0 0,0 0,-0.11776c0,-0.23552 0,-0.47104 0,-0.58881c0,-0.11776 0,-0.23552 0,-0.35328c0,-0.11776 0,-0.11776 -0.11776,-0.11776c0,0 0,0 -0.11776,0c-0.11776,0 -0.25345,-0.09013 -0.47104,0c-0.15386,0.06373 -0.11776,0.23552 -0.23552,0.35328c-0.11776,0.11776 -0.11776,0.35328 -0.23552,0.58881c-0.11776,0.23552 -0.33594,0.49143 -0.47104,0.58881c-0.21362,0.15397 -0.52409,0.40633 -0.82433,0.70657c-0.30023,0.30023 -0.67348,0.62534 -1.05985,0.94209c-0.32836,0.26919 -0.75038,0.5164 -1.17761,0.82433c-0.40531,0.29213 -0.72211,0.55999 -1.17761,0.82433c-0.36724,0.21312 -0.70657,0.47104 -1.05985,0.58881c-0.35328,0.11776 -0.94506,0.33931 -1.5309,0.47104c-0.47371,0.10652 -1.05985,0.23552 -1.64866,0.35328c-0.58881,0.11776 -1.05985,0.23552 -1.5309,0.23552c-0.35328,0 -0.58881,0 -0.82433,0c-0.23552,0 -0.47735,0.05411 -0.70657,0c-0.25628,-0.0605 -0.56067,-0.2845 -0.94209,-0.47104c-0.33453,-0.16361 -0.82433,-0.23552 -1.17761,-0.47104c-0.35328,-0.23552 -0.55412,-0.51181 -0.82433,-0.70657c-0.21362,-0.15397 -0.35328,-0.23552 -0.47105,-0.47105c-0.11776,-0.23552 -0.13814,-0.4537 -0.23552,-0.58881c-0.15397,-0.21362 -0.27629,-0.43636 -0.47105,-0.70657c-0.15397,-0.21362 -0.40226,-0.56067 -0.58881,-0.94209c-0.16361,-0.33453 -0.41055,-0.68581 -0.47105,-0.94209c-0.05411,-0.22922 -0.11776,-0.47104 -0.11776,-0.58881c0,-0.23552 -0.11776,-0.35328 -0.11776,-0.58881c0,-0.23552 -0.11776,-0.58881 -0.11776,-0.94209c0,-0.23552 0,-0.47105 0,-0.70657c0,-0.23552 0.09013,-0.60674 0,-0.82433c-0.06373,-0.15386 -0.11776,-0.23552 -0.11776,-0.35328c0,-0.11776 0.08327,-0.27002 0,-0.35328c-0.08327,-0.08327 -0.11776,-0.11776 -0.11776,-0.11776c0,-0.11776 0,-0.11776 0,-0.23552c0,0 -0.11776,0 -0.11776,0l0,0l0,-0.11776l0,0.11776" stroke="#000" fill="none"/>
  <path id="eye2" d="m15.45587,26.05439c0,0 0.0423,-0.23743 0,-0.70657c-0.11824,-1.31129 -0.70622,-2.81277 -0.82433,-4.35717c-0.09877,-1.2916 -0.11776,-2.35523 -0.11776,-2.94403c0,-0.35328 0.11776,-0.35328 0.11776,-0.35328c0.11776,0.11776 0.17502,0.33253 0.23552,0.58881c0.05411,0.22922 -0.07527,0.61414 0.23552,1.41314c0.4773,1.22705 1.26633,2.79973 1.64866,4.23941c0.30824,1.1607 0.47104,2.00194 0.47104,2.35523c0,0.11776 0.03339,-0.00118 0,-0.47105c-0.05903,-0.8306 -0.35328,-1.88418 -0.47104,-3.41508c-0.11776,-1.5309 -0.23552,-2.59075 -0.23552,-3.41508c0,-0.35328 0,-0.58881 0,-0.58881c-0.11776,0.11776 -0.11776,0.23552 -0.11776,0.58881c0,0.35328 0,0.70657 0,1.41314c0,0.70657 0.11776,1.64866 0.35328,2.70851c0.23552,1.05985 0.31692,1.89264 0.47104,2.47299c0.09558,0.35992 0.11776,0.35328 0.11776,0.35328c0,0 0.05811,-0.22122 0.11776,-0.58881c0.01886,-0.11624 0,-0.11776 0,-0.11776c0,0 0,0 0,0.11776l0,0" stroke="#000" fill="none"/>
  <path id="eye1" d="m35.23978,27.82081c0,0 0,0 0,-0.35328c0,-0.70657 0,-1.64866 0,-2.70851c0,-0.82433 0,-1.5309 0,-2.00194c0,-0.35328 0,-0.58881 0,-0.94209c0,-0.23552 0,-0.47104 0,-0.70657c0,0 0,0 0,0c0,0.23552 0.1309,0.58239 0.47105,1.29537c0.61268,1.28426 1.43238,3.05422 2.11971,4.82822c0.727,1.87639 1.19138,3.41127 1.41314,4.23941c0.12559,0.46902 0.15225,0.67208 0.23552,0.58881c0.08327,-0.08327 0,-0.35328 0,-0.82433c0,-0.58881 0.09877,-1.65243 0,-2.94403c-0.11811,-1.5444 -0.41209,-3.05739 -0.47105,-4.23941c-0.0352,-0.70569 0,-1.29537 0,-1.41314c0,-0.11776 0,-0.23552 0,-0.23552c0,-0.11776 -0.08003,-0.23856 -0.11776,-0.47104c-0.05965,-0.36758 -0.17587,-0.81003 -0.23552,-1.17761c-0.03773,-0.23248 0,-0.35328 0,-0.23552c0,0.11776 0,0.35328 0,0.58881c0,0 0,0 0,-0.11776c0,-0.11776 0,-0.11776 0,-0.11776c0.11776,0.35328 0.31352,0.83212 0.47105,1.5309c0.18853,0.83633 0.51413,1.87211 0.82433,3.0618c0.27393,1.05058 0.39393,1.90502 0.58881,2.47299c0.08546,0.24907 0.11776,0.23552 0.23552,0.35328l0,0" stroke="#000" fill="none"/>
  <path id="nose" d="m25.93663,25.70111c0,0 -0.3809,0.19967 -1.76642,1.29538c-2.88568,2.28206 -6.03464,5.03367 -8.12553,7.06568c-1.79147,1.74102 -2.77316,2.92213 -2.94403,3.53284c-0.19301,0.68982 -0.19578,1.21412 0,1.5309c0.17511,0.28334 0.5241,0.5241 0.82433,0.82433c0.30024,0.30024 0.53678,0.64996 0.94209,0.94209c0.21362,0.15396 0.35328,0.23552 0.35328,0.23552c0.11776,0 0.11776,-0.11776 0.23552,-0.23552c0.23552,-0.23552 0.60099,-0.43725 1.29538,-0.70657c1.08133,-0.41939 2.28246,-0.99928 3.88612,-2.23746c2.18401,-1.68626 4.75191,-3.95611 7.06568,-6.00583c1.55949,-1.38152 2.56482,-2.37767 3.17956,-3.06179c0.28379,-0.31582 0.23552,-0.47105 0.35328,-0.58881c0,0 0.01886,-0.11928 0,-0.23552c-0.05965,-0.36759 -0.22415,-1.06184 -0.35328,-1.76642c-0.10825,-0.59063 -0.12929,-1.2747 -0.35328,-1.41314c-0.10017,-0.06191 -0.11776,0 -0.23552,0c0,0 0,0 0,0c0,0.11776 0,0.11776 -0.11776,0.11776l0,0l0,0" stroke="#000" fill="none"/>
  <path id="mouth" d="m34.76873,43.01203c0,0.11776 -0.11776,0.47104 -0.47105,1.05985c-0.35328,0.58881 -0.78282,1.17438 -1.29538,1.29538c-0.68766,0.16233 -1.5309,0 -2.59075,0c-0.94209,0 -1.65107,-0.05828 -2.35523,0c-0.71387,0.05908 -1.31092,0.32447 -1.76642,0.58881c-0.36724,0.21312 -0.58881,0.35329 -0.58881,0.35329c-0.11776,0 -0.23552,-0.11776 -0.23552,-0.11776c-0.11776,0 -0.23552,0 -0.35328,0l0,0l-0.11776,-0.11776"  stroke="#000" fill="none"/>
  <path id="bangs" d="m13.80721,4.03302c0,0.11776 0.02755,0.24171 -0.11776,0.82433c-0.29753,1.19292 -0.82433,2.47299 -1.05985,3.53284c-0.23552,1.05985 -0.35328,1.88418 -0.35328,2.70851c0,0.82433 -0.01138,1.65065 0.11776,2.35523c0.10825,0.59063 0.27617,1.19845 0.47105,1.76642c0.17092,0.49814 0.35328,0.94209 0.47105,1.17761c0.11776,0.23552 0.11776,0.35328 0.23552,0.35328c0,0 0,0 0,0c0.11776,-0.23552 0.19342,-0.71681 0.47105,-1.76642c0.40958,-1.54847 0.85179,-3.0539 1.17761,-4.23941c0.25735,-0.93636 0.55894,-1.7854 0.94209,-2.35523c0.32855,-0.48862 0.78964,-0.8651 1.05985,-1.05985c0.21362,-0.15397 0.37215,-0.234 0.35328,-0.11776c-0.05965,0.36759 -0.47694,1.27201 -0.70657,2.82627c-0.25875,1.75133 -0.31626,3.54333 -0.11776,5.41702c0.17763,1.6767 0.82595,3.35698 1.41314,4.35717c0.2981,0.50777 0.69228,0.9076 0.94209,0.82433c0.24981,-0.08327 0.61422,-0.92558 1.29537,-2.00194c0.73438,-1.16047 1.54847,-2.8201 2.11971,-4.47493c0.48605,-1.40804 0.6474,-2.34649 0.70657,-2.94403c0.02321,-0.23438 -0.02914,-0.23432 0,0.11776c0.05908,0.71387 0.19976,2.12521 0.47104,3.76836c0.31227,1.89141 0.56261,3.56748 0.94209,4.82822c0.25849,0.85878 0.49555,1.35978 0.82433,1.41314c0.25992,0.04218 0.55988,-0.42636 1.05985,-1.5309c0.72193,-1.59486 1.16752,-3.77007 1.5309,-5.88807c0.34375,-2.0036 0.47104,-3.53284 0.47104,-4.59269c0,-0.70657 -0.00896,-0.98716 -0.11776,-0.94209c-0.15386,0.06373 -0.10396,0.58512 0.23552,1.88418c0.61382,2.34883 1.4058,5.41895 2.1197,8.12553c0.46626,1.76769 0.80006,2.71881 1.05985,3.29732c0.10787,0.24021 0.22169,0.23532 0.23552,-0.23552c0.05891,-2.00454 0.23552,-5.77031 0.23552,-9.42091c0,-2.35523 0,-3.88612 0,-4.71045c0,-0.11776 -0.0995,0.60174 0.11776,1.88418c0.32441,1.91489 1.10574,4.26108 1.88418,6.7124c0.75525,2.37828 1.61304,4.72875 2.47299,6.35911c0.56564,1.07239 1.05985,1.76642 1.29538,2.00194c0.11776,0.11776 0.17502,0.13852 0.23552,-0.11776c0.08117,-0.34383 0,-0.94209 0,-2.00194c0,-1.5309 -0.17657,-3.05739 -0.23552,-4.23941c-0.04106,-0.82331 -0.17587,-1.39883 -0.23552,-1.76642c-0.05659,-0.34872 0,-0.82433 0,-1.5309c0,-1.05985 0,-2.23746 0,-3.53284c0,-0.82433 0,-1.41314 0,-1.76642c0,-0.11776 -0.06299,-0.19893 -0.23552,0c-0.24399,0.28133 -0.15697,1.0604 -0.11776,2.47299c0.0589,2.12216 0.6117,4.61367 1.17761,6.94792c0.40399,1.66636 0.56454,2.48328 0.82433,3.06179c0.10787,0.24021 0.23552,0.35328 0.47105,0.47105c0.23552,0.11776 0.47104,0.23552 0.70657,0.23552c0.23552,0 0.35328,0 0.35328,0c0.11776,0 0.23552,0 0.23552,0c0.11776,0.11776 0.05585,0.10017 0.11776,0c0.13844,-0.224 0.6624,-0.49746 1.41314,-1.17761c0.92771,-0.84048 1.69242,-1.93421 2.11971,-3.17956c0.38975,-1.13593 0.41198,-2.35656 0.35328,-3.6506c-0.05894,-1.29938 -0.41205,-2.46749 -0.47105,-3.41508c-0.03659,-0.58767 -0.11776,-0.94209 -0.11776,-1.17761c0,-0.11776 0,-0.11776 0,-0.11776c0,0 0,-0.11776 -0.11776,-0.11776c0,0 0,-0.11776 0,-0.11776c0,-0.11776 -0.0907,-0.12091 -0.11776,-0.23552c-0.0605,-0.25628 -0.11776,-0.35328 -0.11776,-0.47105l-0.11776,0" stroke="#000" fill="none"/>
  <path id="hairleft" d="m48.31129,29.46947c0,0 -0.11816,-0.36835 0,-0.82433c0.30413,-1.17366 0.89043,-1.51881 1.5309,-1.76642c0.56007,-0.21653 1.05985,-0.11776 1.41314,-0.11776c0.35328,0 0.62957,0.08308 0.82433,0.35328c0.30793,0.42723 0.47104,1.05985 0.58881,2.00194c0.11776,0.94209 0.23552,1.88418 0.23552,2.82627c0,1.17761 0.05457,2.47396 0,4.00389c-0.05892,1.65181 -0.04794,2.95312 -0.23552,4.12165c-0.17208,1.07198 -0.42273,1.79385 -0.70657,2.23746c-0.40639,0.63515 -0.92896,0.96495 -1.5309,1.29538c-0.69249,0.38014 -1.28686,0.6161 -2.00195,0.82433c-0.93236,0.2715 -1.74315,0.52202 -2.47299,0.82433c-0.68809,0.28502 -1.19554,0.26315 -1.41314,0.35328c-0.15386,0.06373 -0.26888,0.05096 -0.47104,-0.11776c-0.45206,-0.37728 -0.91633,-1.00135 -1.41314,-1.88418c-0.43983,-0.78159 -0.69259,-1.53387 -0.82433,-2.11971c-0.10652,-0.47371 -0.11776,-0.82433 -0.11776,-1.05985c0,-0.11776 0,-0.11776 0,-0.23552c0,0 0.11776,-0.11776 0.11776,-0.11776c0,-0.11776 0,-0.23552 0,-0.35328l0,0" stroke="#000" fill="none"/>
  <path id="headoutline" d="m11.0987,31.70694c0,0 0,0 0,0.11776c0,0.35328 0,0.94209 0,1.5309c0,0.47104 0.06344,1.16548 0.23552,2.23746c0.18758,1.16853 0.4105,2.34274 0.58881,3.29732c0.17433,0.93328 0.33762,1.77047 0.58881,2.70851c0.22176,0.82814 0.47104,1.64866 0.58881,2.23747c0.11776,0.58881 0.37569,1.0459 0.58881,1.41314c0.26434,0.4555 0.67473,0.96904 1.17761,1.5309c0.55534,0.62046 1.17761,1.05985 1.76642,1.64866c0.47104,0.47105 0.96832,0.79183 1.41314,1.17762c0.37744,0.32735 0.82433,0.70657 1.17761,0.94209c0.35328,0.23552 0.55412,0.39405 0.82433,0.58881c0.21362,0.15397 0.4537,0.25591 0.58881,0.35328c0.21362,0.15397 0.47104,0.23552 0.70657,0.35329c0.23552,0.11776 0.70657,0.23552 1.05985,0.35328c0.35328,0.11776 0.70224,0.25441 1.17761,0.35328c0.70131,0.14586 1.64866,0.11776 2.47299,0.11776c0.70657,0 1.41314,0 2.00194,0c0.47104,0 0.94209,0 1.41314,0c0.47104,0 0.93123,-0.05844 1.41314,-0.11776c0.46752,-0.05756 0.94665,-0.06117 1.29537,-0.11776c0.36759,-0.05965 0.70922,-0.19236 1.05985,-0.23552c0.48191,-0.05933 0.93784,-0.24916 1.29538,-0.35328c0.46618,-0.13575 0.9192,-0.28833 1.41314,-0.47105c0.45538,-0.16846 0.94696,-0.33529 1.41314,-0.47105c0.35754,-0.10412 0.72847,-0.31707 0.94209,-0.47104c0.27021,-0.19476 0.47104,-0.47105 0.58881,-0.70657c0.23552,-0.47105 0.5563,-0.85056 0.94209,-1.29538c0.32735,-0.37744 0.70657,-0.70657 0.94209,-0.94209c0.23552,-0.23552 0.32623,-0.4742 0.35328,-0.58881c0.0605,-0.25628 0.17502,-0.45029 0.23552,-0.70657c0.02706,-0.11461 0.0907,-0.23867 0.11776,-0.35328c0.0605,-0.25628 0.11776,-0.58881 0.23552,-0.82433c0.11776,-0.23552 0.0727,-0.48001 0.11776,-0.58881c0.06373,-0.15387 0.11776,-0.23552 0.11776,-0.47105c0,-0.35328 0.11776,-0.47105 0.11776,-0.70657l-0.11776,0" stroke="#000" fill="none"/>
  <path id="hairrest" d="m11.80527,40.77456c0,0 -0.14399,0.08526 -0.58881,0.47105c-0.62907,0.54559 -1.06309,0.93676 -1.64866,1.29538c-0.9474,0.58022 -1.54119,0.80006 -2.1197,1.05985c-0.48043,0.21574 -0.83063,0.41693 -1.05985,0.47104c-0.25628,0.0605 -0.35328,0.11776 -0.47105,0.11776c-0.23552,0 -0.33594,-0.13815 -0.47105,-0.23552c-0.21362,-0.15396 -0.52037,-0.16709 -0.70657,-0.35328c-0.1862,-0.1862 -0.33122,-0.37764 -0.58881,-0.58881c-0.32836,-0.26919 -0.58881,-0.70657 -0.82433,-1.17762c-0.23552,-0.47104 -0.32902,-0.95238 -0.58881,-1.5309c-0.21574,-0.48043 -0.36869,-1.17266 -0.58881,-1.88418c-0.25338,-0.81902 -0.41205,-1.87868 -0.47105,-2.82627c-0.05122,-0.82273 -0.17635,-1.63992 -0.23552,-2.23746c-0.04642,-0.46875 -0.11776,-0.70657 -0.11776,-0.82433c0,0 0.11776,-0.11776 0.11776,-0.11776c0,0 0.03449,0.03449 0.11776,0.11776c0.08327,0.08327 0.11776,0 0.23552,0c0,0 0,0 0,0c0,-0.11776 0.11776,-0.11776 0.11776,-0.35329c0,-0.11776 0.05726,-0.21477 0.11776,-0.47104c0.08117,-0.34383 0.00723,-0.82333 0.11776,-1.64866c0.12602,-0.94102 0.35328,-1.88418 0.47105,-2.94403c0.11776,-1.05985 0.32295,-2.24335 0.58881,-3.53284c0.31726,-1.53877 0.67076,-3.0721 1.05985,-4.35717c0.43166,-1.42566 0.98627,-2.85545 1.5309,-4.12165c0.41619,-0.96758 0.77014,-1.79622 1.17761,-2.47299c0.52252,-0.86786 1.5309,-2.00194 2.59075,-3.06179c1.29537,-1.29537 2.67266,-2.74874 4.12165,-4.00389c1.26508,-1.09584 2.43056,-2.07601 3.41508,-2.59075c0.79477,-0.41553 1.52595,-0.60421 2.23746,-0.82433c0.81902,-0.25337 1.64462,-0.48339 2.70851,-0.82433c1.52532,-0.48881 3.18283,-1.04595 4.71045,-1.41314c1.41629,-0.34042 2.47506,-0.52948 3.29732,-0.47105c0.8306,0.05903 1.64866,0.35328 2.35523,0.70657c0.70657,0.35328 1.24903,0.65346 1.88418,1.05985c0.66542,0.42576 1.27958,0.84893 2.00194,1.29537c0.80762,0.49914 1.64866,1.05985 2.47299,1.5309c0.82433,0.47105 1.8109,0.98939 2.59075,1.5309c0.75547,0.52458 1.38147,0.97555 2.00194,1.5309c0.56186,0.50289 1.02765,0.97667 1.5309,1.41314c0.44481,0.38579 0.96832,0.79183 1.41314,1.17761c0.50325,0.43647 0.94209,1.05985 1.29537,1.64866c0.35329,0.58881 0.66522,1.08291 0.94209,1.5309c0.30956,0.50087 0.79623,0.95879 1.29538,1.76642c0.66967,1.08354 1.41314,2.23746 2.00194,3.41508c0.47104,0.94209 0.94209,1.88418 1.41314,2.82627c0.47105,0.94209 1.14481,2.19869 1.64866,3.41508c0.42753,1.03214 0.65256,1.98826 0.82433,2.94403c0.18862,1.04956 0.33865,2.70955 0.47105,4.47493c0.10605,1.41406 0.18986,2.72035 0,3.6506c-0.17144,0.84 -0.90483,1.91116 -1.76642,3.06179c-0.90392,1.20716 -1.7037,2.39746 -2.35522,3.29732c-0.53939,0.74498 -0.94209,1.17761 -1.17762,1.41314c-0.11776,0.11776 -0.23552,0.23552 -0.23552,0.23552c-0.11776,0 -0.11776,0 -0.23552,0c0,0 0,-0.11776 0,-0.11776l0,0l0,-0.11776" stroke="#000" fill="none"/>
  </svg>