<svg
  width="100%"
  height="60"
  viewBox="0 0 600 60"
  xmlns="http://www.w3.org/2000/svg"
>
  <!-- Stylized "WC" logo with curves -->
  <!-- W -->
  <path id="line-1" d="M50 20 Q60 35 70 20 Q75 25 80 20 Q85 35 95 20" stroke="#333" stroke-width="2" fill="none" vector-effect="non-scaling-stroke" />
  <!-- C -->
  <path id="line-2" d="M110 20 Q100 20 100 30 Q100 40 110 40" stroke="#333" stroke-width="2" fill="none" vector-effect="non-scaling-stroke" />
  <!-- Decorative curve -->
  <path id="line-3" d="M120 25 Q140 15 160 25 Q180 35 200 25" stroke="#333" stroke-width="2" fill="none" vector-effect="non-scaling-stroke" />
  <!-- Additional decorative elements -->
  <path id="line-4" d="M220 20 Q230 30 240 20" stroke="#333" stroke-width="2" fill="none" vector-effect="non-scaling-stroke" />
  <path id="line-5" d="M250 25 Q260 15 270 25 Q280 35 290 25" stroke="#333" stroke-width="2" fill="none" vector-effect="non-scaling-stroke" />
  <path id="line-6" d="M300 20 Q310 30 320 20" stroke="#333" stroke-width="2" fill="none" vector-effect="non-scaling-stroke" />
  <path id="line-7" d="M330 25 Q340 15 350 25" stroke="#333" stroke-width="2" fill="none" vector-effect="non-scaling-stroke" />
  <path id="line-8" d="M360 20 Q370 30 380 20 Q385 25 390 20" stroke="#333" stroke-width="2" fill="none" vector-effect="non-scaling-stroke" />
  <path id="line-9" d="M400 25 Q410 15 420 25 Q430 35 440 25" stroke="#333" stroke-width="2" fill="none" vector-effect="non-scaling-stroke" />
  <path id="line-10" d="M450 20 Q460 30 470 20" stroke="#333" stroke-width="2" fill="none" vector-effect="non-scaling-stroke" />
  <path id="line-11" d="M480 25 Q490 15 500 25" stroke="#333" stroke-width="2" fill="none" vector-effect="non-scaling-stroke" />
  <path id="line-12" d="M510 20 Q520 30 530 20 Q535 25 540 20" stroke="#333" stroke-width="2" fill="none" vector-effect="non-scaling-stroke" />
  <path id="line-13" d="M550 25 Q560 15 570 25 Q580 35 590 25" stroke="#333" stroke-width="2" fill="none" vector-effect="non-scaling-stroke" />
  <!-- Fill remaining elements with decorative curves -->
  <path id="line-14" d="M30 35 Q40 45 50 35" stroke="#333" stroke-width="2" fill="none" vector-effect="non-scaling-stroke" />
  <path id="line-15" d="M60 40 Q70 30 80 40" stroke="#333" stroke-width="2" fill="none" vector-effect="non-scaling-stroke" />
  <path id="line-16" d="M90 35 Q100 45 110 35" stroke="#333" stroke-width="2" fill="none" vector-effect="non-scaling-stroke" />
  <path id="line-17" d="M130 40 Q140 30 150 40" stroke="#333" stroke-width="2" fill="none" vector-effect="non-scaling-stroke" />
  <path id="line-18" d="M160 35 Q170 45 180 35" stroke="#333" stroke-width="2" fill="none" vector-effect="non-scaling-stroke" />
  <path id="line-19" d="M190 40 Q200 30 210 40" stroke="#333" stroke-width="2" fill="none" vector-effect="non-scaling-stroke" />
  <path id="line-20" d="M230 35 Q240 45 250 35" stroke="#333" stroke-width="2" fill="none" vector-effect="non-scaling-stroke" />
  <path id="line-21" d="M260 40 Q270 30 280 40" stroke="#333" stroke-width="2" fill="none" vector-effect="non-scaling-stroke" />
  <path id="line-22" d="M290 35 Q300 45 310 35" stroke="#333" stroke-width="2" fill="none" vector-effect="non-scaling-stroke" />
  <path id="line-23" d="M320 40 Q330 30 340 40" stroke="#333" stroke-width="2" fill="none" vector-effect="non-scaling-stroke" />
  <path id="line-24" d="M350 35 Q360 45 370 35" stroke="#333" stroke-width="2" fill="none" vector-effect="non-scaling-stroke" />
  <path id="line-25" d="M380 40 Q390 30 400 40" stroke="#333" stroke-width="2" fill="none" vector-effect="non-scaling-stroke" />
  <path id="line-26" d="M410 35 Q420 45 430 35" stroke="#333" stroke-width="2" fill="none" vector-effect="non-scaling-stroke" />
  <path id="line-27" d="M440 40 Q450 30 460 40" stroke="#333" stroke-width="2" fill="none" vector-effect="non-scaling-stroke" />
  <path id="line-28" d="M470 35 Q480 45 490 35" stroke="#333" stroke-width="2" fill="none" vector-effect="non-scaling-stroke" />
  <path id="line-29" d="M500 40 Q510 30 520 40" stroke="#333" stroke-width="2" fill="none" vector-effect="non-scaling-stroke" />
  <path id="line-30" d="M530 35 Q540 45 550 35" stroke="#333" stroke-width="2" fill="none" vector-effect="non-scaling-stroke" />
  <path id="line-31" d="M560 40 Q570 30 580 40" stroke="#333" stroke-width="2" fill="none" vector-effect="non-scaling-stroke" />
  <path id="line-32" d="M10 25 Q20 35 30 25" stroke="#333" stroke-width="2" fill="none" vector-effect="non-scaling-stroke" />
  <path id="line-33" d="M40 30 Q50 20 60 30" stroke="#333" stroke-width="2" fill="none" vector-effect="non-scaling-stroke" />
  <path id="line-34" d="M70 25 Q80 35 90 25" stroke="#333" stroke-width="2" fill="none" vector-effect="non-scaling-stroke" />
  <path id="line-35" d="M100 30 Q110 20 120 30" stroke="#333" stroke-width="2" fill="none" vector-effect="non-scaling-stroke" />
  <path id="line-36" d="M130 25 Q140 35 150 25" stroke="#333" stroke-width="2" fill="none" vector-effect="non-scaling-stroke" />
  <path id="line-37" d="M160 30 Q170 20 180 30" stroke="#333" stroke-width="2" fill="none" vector-effect="non-scaling-stroke" />
  <path id="line-38" d="M190 25 Q200 35 210 25 Q220 30 230 25" stroke="#333" stroke-width="2" fill="none" vector-effect="non-scaling-stroke" />
</svg>
